<!DOCTYPE svg PUBLIC "-//W3C//DTD SVG 1.1//EN" "http://www.w3.org/Graphics/SVG/1.1/DTD/svg11.dtd">
<!-- Uploaded to: SVG Repo, www.svgrepo.com, Transformed by: SVG Repo Mixer Tools -->
<svg fill="#919191" width="800px" height="800px" viewBox="0 0 22 22" xmlns="http://www.w3.org/2000/svg" id="memory-rotate-clockwise" stroke="#919191" transform="rotate(0)">
<g id="SVGRepo_bgCarrier" stroke-width="0"/>
<g id="SVGRepo_tracerCarrier" stroke-linecap="round" stroke-linejoin="round"/>
<g id="SVGRepo_iconCarrier">
<path d="M22 11V12H21V13H20V14H19V15H17V14H16V13H15V12H14V11H17V9H16V7H15V6H13V5H9V6H7V7H6V9H5V13H6V15H7V16H9V17H13V16H16V18H14V19H8V18H6V17H5V16H4V14H3V8H4V6H5V5H6V4H8V3H14V4H16V5H17V6H18V8H19V11H22Z"/>
</g>
</svg>